<?xml version="1.0" encoding="iso-8859-1"?>
<!-- Generator: Adobe Illustrator 19.0.0, SVG Export Plug-In . SVG Version: 6.00 Build 0)  -->
<svg version="1.1" id="Layer_1" xmlns="http://www.w3.org/2000/svg" xmlns:xlink="http://www.w3.org/1999/xlink" x="0px" y="0px"
	 viewBox="0 0 512 512" style="enable-background:new 0 0 512 512;" xml:space="preserve">
<g>
	<g>
		<path d="M437.019,74.981C388.668,26.628,324.38,0,256,0S123.332,26.628,74.981,74.981S0,187.62,0,256
			s26.628,132.668,74.981,181.019S187.62,512,256,512s132.668-26.628,181.019-74.981S512,324.38,512,256
			S485.372,123.332,437.019,74.981z M425.291,425.291c-45.22,45.219-105.341,70.122-169.291,70.122s-124.071-24.903-169.291-70.122
			C41.491,380.071,16.587,319.949,16.587,256S41.491,131.929,86.709,86.709C131.929,41.491,192.051,16.587,256,16.587
			s124.071,24.903,169.291,70.122c45.219,45.22,70.122,105.341,70.122,169.291S470.509,380.071,425.291,425.291z"/>
	</g>
</g>
<g>
	<g>
		<path d="M256,35.387C134.353,35.387,35.387,134.353,35.387,256S134.353,476.613,256,476.613S476.613,377.647,476.613,256
			S377.647,35.387,256,35.387z M256,460.026c-112.501,0-204.026-91.525-204.026-204.026S143.499,51.974,256,51.974
			S460.026,143.499,460.026,256S368.501,460.026,256,460.026z"/>
	</g>
</g>
<g>
	<g>
		<path d="M105.607,247.706h-26.54c-4.58,0-8.294,3.713-8.294,8.294c0,4.58,3.713,8.294,8.294,8.294h26.54
			c4.58,0,8.294-3.713,8.294-8.294C113.901,251.42,110.187,247.706,105.607,247.706z"/>
	</g>
</g>
<g>
	<g>
		<path d="M432.933,247.706h-26.54c-4.58,0-8.294,3.713-8.294,8.294c0,4.58,3.713,8.294,8.294,8.294h26.54
			c4.58,0,8.294-3.713,8.294-8.294C441.227,251.42,437.513,247.706,432.933,247.706z"/>
	</g>
</g>
<g>
	<g>
		<path d="M256,70.773c-4.58,0-8.294,3.713-8.294,8.294v26.54c0,4.58,3.713,8.294,8.294,8.294c4.58,0,8.294-3.713,8.294-8.294
			v-26.54C264.294,74.487,260.58,70.773,256,70.773z"/>
	</g>
</g>
<g>
	<g>
		<path d="M256,398.099c-4.58,0-8.294,3.713-8.294,8.294v26.54c0,4.58,3.713,8.294,8.294,8.294c4.58,0,8.294-3.713,8.294-8.294
			v-26.54C264.294,401.813,260.58,398.099,256,398.099z"/>
	</g>
</g>
<g>
	<g>
		<path d="M176.104,394.385c-3.968-2.292-9.039-0.931-11.329,3.036l-4.423,7.661c-2.29,3.967-0.931,9.039,3.036,11.329
			c1.306,0.754,2.732,1.112,4.139,1.112c2.866,0,5.654-1.488,7.19-4.148l4.423-7.661
			C181.429,401.746,180.07,396.674,176.104,394.385z"/>
	</g>
</g>
<g>
	<g>
		<path d="M348.613,95.589c-3.968-2.291-9.039-0.931-11.329,3.036l-4.423,7.661c-2.29,3.968-0.931,9.04,3.035,11.329
			c1.306,0.754,2.733,1.112,4.139,1.112c2.866,0,5.654-1.488,7.19-4.148l4.423-7.661C353.939,102.952,352.58,97.879,348.613,95.589z
			"/>
	</g>
</g>
<g>
	<g>
		<path d="M114.58,164.774l-7.661-4.423c-3.967-2.292-9.039-0.931-11.329,3.036s-0.931,9.039,3.036,11.329l7.661,4.423
			c1.306,0.754,2.732,1.112,4.139,1.112c2.866,0,5.654-1.488,7.19-4.148C119.906,172.137,118.547,167.065,114.58,164.774z"/>
	</g>
</g>
<g>
	<g>
		<path d="M413.375,337.284l-7.661-4.423c-3.967-2.29-9.039-0.931-11.329,3.035s-0.931,9.039,3.036,11.329l7.661,4.423
			c1.306,0.754,2.733,1.112,4.139,1.112c2.866,0,5.654-1.488,7.19-4.148C418.701,344.647,417.342,339.574,413.375,337.284z"/>
	</g>
</g>
<g>
	<g>
		<path d="M351.649,405.082l-4.423-7.661c-2.29-3.968-7.363-5.327-11.329-3.036c-3.967,2.29-5.326,7.363-3.035,11.329l4.423,7.661
			c1.536,2.661,4.324,4.148,7.19,4.148c1.407,0,2.833-0.358,4.139-1.112C352.58,414.121,353.939,409.048,351.649,405.082z"/>
	</g>
</g>
<g>
	<g>
		<path d="M179.139,106.286l-4.423-7.661c-2.29-3.968-7.363-5.327-11.329-3.036c-3.967,2.29-5.326,7.363-3.036,11.329l4.423,7.661
			c1.536,2.661,4.324,4.148,7.19,4.148c1.407,0,2.833-0.358,4.139-1.112C180.07,115.325,181.429,110.253,179.139,106.286z"/>
	</g>
</g>
<g>
	<g>
		<path d="M416.411,163.387c-2.29-3.968-7.363-5.327-11.329-3.035l-7.661,4.423c-3.967,2.29-5.326,7.363-3.035,11.329
			c1.536,2.661,4.324,4.148,7.19,4.148c1.407,0,2.833-0.358,4.139-1.112l7.661-4.423
			C417.342,172.426,418.701,167.353,416.411,163.387z"/>
	</g>
</g>
<g>
	<g>
		<path d="M117.615,335.896c-2.289-3.968-7.363-5.326-11.329-3.035l-7.661,4.423c-3.967,2.29-5.326,7.363-3.036,11.329
			c1.536,2.661,4.324,4.148,7.19,4.148c1.407,0,2.833-0.358,4.139-1.112l7.661-4.423
			C118.546,344.935,119.905,339.863,117.615,335.896z"/>
	</g>
</g>
<g>
	<g>
		<path d="M353.313,283.093h-9.4v-97.866c0-4.58-3.713-8.294-8.294-8.294c-4.58,0-8.294,3.713-8.294,8.294v97.866h-50.972
			l31.747-95.243c1.449-4.346-0.9-9.042-5.246-10.491c-4.346-1.448-9.041,0.9-10.491,5.246l-35.387,106.16
			c-0.843,2.529-0.419,5.309,1.14,7.472c1.559,2.163,4.063,3.445,6.728,3.445h62.481v27.093c0,4.58,3.713,8.294,8.294,8.294
			c4.58,0,8.294-3.713,8.294-8.294V299.68h9.4c4.58,0,8.294-3.713,8.294-8.294C361.607,286.806,357.893,283.093,353.313,283.093z"/>
	</g>
</g>
<g>
	<g>
		<path d="M238.307,318.479h-70.524c3.117-14.827,15.173-21.602,33.193-30.57c20.327-10.116,45.625-22.706,45.625-58.45
			c0-28.963-21.579-52.527-48.104-52.527s-48.104,23.564-48.104,52.527c0,4.58,3.713,8.294,8.294,8.294
			c4.58,0,8.294-3.713,8.294-8.294c0-19.816,14.138-35.94,31.516-35.94c17.378,0,31.516,16.123,31.516,35.94
			c0,25.471-16.882,33.872-36.428,43.6c-20.246,10.075-43.192,21.495-43.192,53.714c0,4.58,3.713,8.294,8.294,8.294h79.62
			c4.58,0,8.294-3.713,8.294-8.294C246.6,322.193,242.887,318.479,238.307,318.479z"/>
	</g>
</g>
<g>
</g>
<g>
</g>
<g>
</g>
<g>
</g>
<g>
</g>
<g>
</g>
<g>
</g>
<g>
</g>
<g>
</g>
<g>
</g>
<g>
</g>
<g>
</g>
<g>
</g>
<g>
</g>
<g>
</g>
</svg>
