<?xml version="1.0" encoding="iso-8859-1"?>
<!-- Generator: Adobe Illustrator 19.0.0, SVG Export Plug-In . SVG Version: 6.00 Build 0)  -->
<svg version="1.1" id="Layer_1" xmlns="http://www.w3.org/2000/svg" xmlns:xlink="http://www.w3.org/1999/xlink" x="0px" y="0px"
	 viewBox="0 0 512.002 512.002" style="enable-background:new 0 0 512.002 512.002;" xml:space="preserve">
<g>
	<g>
		<path d="M494.883,241.948c1.379-1.464,2.229-3.431,2.229-5.6c0-4.518-3.662-8.18-8.18-8.18h-1.927
			c-5.992-10.276-4.692-26.119,1.213-30.548c2.816-2.113,3.966-5.79,2.852-9.131c-1.114-3.341-4.239-5.593-7.76-5.593h-78.382
			c-3.522,0-6.646,2.252-7.76,5.594c-1.114,3.341,0.036,7.018,2.853,9.13c5.905,4.429,7.206,20.271,1.214,30.548h-1.927
			c-4.517,0-8.18,3.661-8.18,8.18c0,2.169,0.851,4.136,2.228,5.6c-2.619,6.459-3.981,13.387-3.981,20.527
			c0,20.957,11.842,39.191,29.18,48.387c-11.747,13.236-28.56,20.905-46.611,20.905c-33.138,0-60.299-25.676-62.254-58.62
			c0.685-3.454,1.052-7.021,1.052-10.673c0-7.139-1.362-14.068-3.98-20.527c1.379-1.465,2.228-3.431,2.228-5.6
			c0-4.518-3.662-8.18-8.18-8.18h-1.927c-2.811-4.821-4.019-10.863-3.897-16.381h12.052c16.982,0,30.799-13.817,30.799-30.8
			c0-15.929-12.155-29.073-27.678-30.643c0.526-11.75,10.221-21.154,22.1-21.154c12.214,0,22.151,9.936,22.151,22.151v15.231
			c0,12.91,10.502,23.413,23.412,23.413c12.909,0,23.411-10.503,23.411-23.413c0-4.518-3.662-8.18-8.18-8.18s-8.18,3.661-8.18,8.18
			c0,3.888-3.163,7.053-7.051,7.053s-7.052-3.164-7.052-7.053v-15.231c0-21.235-17.276-38.51-38.51-38.51
			c-20.848,0-37.867,16.655-38.481,37.357h-18.49c0.937-2.854,1.456-5.981,1.456-9.282c0-6.879-2.229-13.017-5.887-17.461
			c3.658-4.445,5.887-10.584,5.887-17.462c0-6.879-2.229-13.016-5.887-17.462c3.658-4.444,5.887-10.582,5.887-17.461
			c0-4.546-0.978-8.766-2.694-12.39c20.738-7.405,35.623-27.238,35.623-50.489c0-4.519-3.662-8.18-8.18-8.18h-90.835
			c-4.517,0-8.18,3.661-8.18,8.18c0,23.251,14.885,43.083,35.623,50.489c-1.716,3.624-2.694,7.844-2.694,12.39
			c0,6.879,2.229,13.017,5.887,17.461c-3.658,4.445-5.887,10.584-5.887,17.462c0,6.879,2.229,13.017,5.887,17.462
			c-3.658,4.444-5.887,10.582-5.887,17.461c0,3.3,0.518,6.428,1.456,9.282h-18.49c-0.614-20.701-17.632-37.357-38.481-37.357
			c-21.235,0-38.509,17.276-38.509,38.51v15.231c0,3.888-3.164,7.053-7.052,7.053s-7.051-3.164-7.051-7.053
			c0-4.518-3.662-8.18-8.18-8.18c-4.517,0-8.18,3.661-8.18,8.18c0,12.91,10.502,23.413,23.411,23.413
			c12.91,0,23.412-10.503,23.412-23.413v-15.231c0-12.214,9.937-22.151,22.15-22.151c11.878,0,21.574,9.404,22.101,21.154
			c-15.522,1.569-27.678,14.713-27.678,30.643c0,16.982,13.816,30.8,30.799,30.8h11.897c0.122,5.519-1.086,11.561-3.897,16.381
			h-1.928c-4.517,0-8.18,3.661-8.18,8.18c0,2.169,0.851,4.137,2.229,5.602c-2.617,6.458-3.98,13.385-3.98,20.526
			c0,3.653,0.366,7.219,1.052,10.673c-1.954,32.944-29.116,58.62-62.254,58.62c-18.05,0-34.863-7.669-46.611-20.905
			c17.339-9.197,29.181-27.431,29.181-48.387c0-7.139-1.362-14.068-3.981-20.527c1.378-1.465,2.228-3.431,2.228-5.6
			c0-4.518-3.662-8.18-8.18-8.18h-1.927c-5.992-10.276-4.691-26.119,1.214-30.548c2.817-2.113,3.967-5.79,2.853-9.13
			c-1.114-3.341-4.239-5.594-7.76-5.594H28.693c-3.521,0-6.646,2.252-7.76,5.593c-1.114,3.341,0.036,7.019,2.852,9.131
			c5.906,4.429,7.205,20.272,1.213,30.548h-1.927c-4.517,0-8.18,3.661-8.18,8.18c0,2.169,0.851,4.137,2.228,5.6
			c-2.618,6.459-3.98,13.386-3.98,20.527c0,30.186,24.558,54.742,54.743,54.742c3.084,0,6.105-0.269,9.051-0.761
			c10.726,14.402,25.81,24.523,42.822,29.031c-2.549,3.535-4.958,7.762-7.192,12.697c-5.401,11.929-9.029,26.323-9.029,35.815
			c0,13.199,7.04,24.785,17.561,31.2c-3.049,3.857-5.91,8.676-8.532,14.467c-5.401,11.929-9.029,26.321-9.029,35.814
			c0,20.138,16.384,36.52,36.522,36.52s36.522-16.383,36.522-36.52c0-9.493-3.629-23.885-9.029-35.814
			c-2.622-5.791-5.483-10.611-8.532-14.467c10.521-6.416,17.561-18.002,17.561-31.2c0-9.493-3.629-23.886-9.029-35.815
			c-2.236-4.937-4.645-9.167-7.196-12.702c24.607-6.514,44.49-24.594,53.387-48.249c8.404,10.201,20.425,17.317,34.081,19.372
			v18.523c-6.787,3.68-12.978,11.465-18.226,23.056c-5.401,11.929-9.029,26.323-9.029,35.815c0,13.199,7.04,24.785,17.561,31.2
			c-3.048,3.857-5.91,8.676-8.532,14.467c-5.401,11.929-9.029,26.321-9.029,35.814c0,20.138,16.384,36.52,36.522,36.52
			c20.138,0,36.521-16.382,36.521-36.52c0-9.493-3.629-23.885-9.029-35.814c-2.622-5.791-5.483-10.611-8.531-14.467
			c10.52-6.416,17.56-18.002,17.56-31.2c0-9.493-3.629-23.885-9.029-35.815c-5.802-12.817-12.759-20.971-20.4-24.074v-17.506
			c13.656-2.055,25.676-9.17,34.081-19.372c9.117,24.243,29.774,42.638,55.23,48.719c-2.428,3.441-4.727,7.51-6.865,12.233
			c-5.401,11.929-9.029,26.323-9.029,35.815c0,13.199,7.04,24.784,17.561,31.2c-3.048,3.857-5.91,8.676-8.532,14.467
			c-5.401,11.929-9.029,26.321-9.029,35.814c0,20.138,16.384,36.52,36.522,36.52s36.522-16.382,36.522-36.52
			c0-9.493-3.629-23.885-9.029-35.814c-2.622-5.791-5.483-10.611-8.532-14.467c10.521-6.416,17.561-18.002,17.561-31.2
			c0-9.493-3.629-23.886-9.029-35.815c-2.337-5.162-4.862-9.567-7.543-13.196c16.267-4.733,30.656-14.647,40.997-28.532
			c2.947,0.492,5.968,0.761,9.052,0.761c30.186,0,54.743-24.558,54.743-54.742C498.863,255.335,497.5,248.407,494.883,241.948z
			 M43.328,199.256h49.113c-2.737,8.996-2.353,19.693,0.615,28.912H42.712C45.68,218.949,46.066,208.252,43.328,199.256z
			 M67.884,300.858c-21.165,0-38.384-17.219-38.384-38.383c0-6.346,1.533-12.453,4.454-17.948h67.859
			c2.921,5.496,4.455,11.602,4.455,17.948C106.269,283.639,89.049,300.858,67.884,300.858z M160.22,475.481
			c0,11.116-9.045,20.16-20.163,20.16s-20.163-9.045-20.163-20.16c0-6.132,2.601-18.086,7.573-29.067
			c5.28-11.662,10.421-15.895,12.589-15.895s7.309,4.233,12.589,15.895C157.618,457.395,160.22,469.349,160.22,475.481z
			 M140.058,414.159c-11.118,0-20.163-9.044-20.163-20.159c0-6.133,2.601-18.086,7.573-29.068
			c5.28-11.661,10.421-15.894,12.589-15.894s7.309,4.233,12.589,15.894c4.972,10.982,7.573,22.935,7.573,29.068
			C160.22,405.115,151.175,414.159,140.058,414.159z M219.746,16.361h72.666c-3.739,16.61-18.61,29.06-36.333,29.06
			S223.484,32.971,219.746,16.361z M256.079,114.385c-1.519,0-4.308-3.19-4.308-8.402s2.79-8.402,4.308-8.402
			c1.519,0,4.308,3.19,4.308,8.402S257.598,114.385,256.079,114.385z M260.387,140.905c0,5.212-2.79,8.403-4.308,8.403
			c-1.519,0-4.308-3.191-4.308-8.403s2.79-8.402,4.308-8.402C257.598,132.503,260.387,135.693,260.387,140.905z M256.079,79.462
			c-1.519,0-4.308-3.19-4.308-8.402s2.79-8.402,4.308-8.402c1.519,0,4.308,3.19,4.308,8.402
			C260.387,76.273,257.598,79.462,256.079,79.462z M277.251,475.481c0,11.116-9.045,20.16-20.162,20.16
			c-11.118,0-20.163-9.045-20.163-20.16c0-6.132,2.601-18.085,7.573-29.067c5.28-11.662,10.422-15.895,12.59-15.895
			s7.309,4.233,12.588,15.895C274.649,457.395,277.251,469.349,277.251,475.481z M269.678,364.932
			c4.972,10.982,7.573,22.935,7.573,29.068c0,11.116-9.045,20.159-20.162,20.159c-11.118,0-20.163-9.044-20.163-20.159
			c0-6.133,2.601-18.086,7.573-29.068c5.28-11.661,10.422-15.894,12.59-15.894C259.257,349.037,264.398,353.27,269.678,364.932z
			 M256.002,300.858c-21.165,0-38.384-17.219-38.384-38.383c0-6.346,1.533-12.453,4.454-17.948h67.858
			c2.921,5.495,4.454,11.601,4.454,17.948C294.386,283.639,277.167,300.858,256.002,300.858z M231.446,199.256h49.111
			c-2.737,8.996-2.352,19.693,0.615,28.912h-50.344C233.797,218.949,234.183,208.252,231.446,199.256z M216.812,182.897
			c-3.521,0-6.646,2.252-7.76,5.593c-0.791,2.373-0.421,4.907,0.858,6.938h-4.792c-7.962,0-14.439-6.477-14.439-14.44
			s6.477-14.44,14.439-14.44h101.924c7.962,0,14.439,6.477,14.439,14.44s-6.477,14.44-14.439,14.44h-4.946
			c1.279-2.031,1.649-4.564,0.858-6.936c-1.114-3.341-4.239-5.594-7.76-5.594H216.812z M394.283,475.481
			c0,11.116-9.045,20.16-20.163,20.16c-11.118,0-20.163-9.045-20.163-20.16c0-6.133,2.601-18.086,7.573-29.067
			c5.28-11.662,10.421-15.895,12.589-15.895c2.168,0,7.309,4.233,12.589,15.895C391.681,457.395,394.283,469.349,394.283,475.481z
			 M394.283,394c0,11.116-9.045,20.159-20.163,20.159c-11.118,0-20.163-9.044-20.163-20.159c0-6.133,2.601-18.086,7.573-29.068
			c5.279-11.661,10.421-15.894,12.589-15.894c2.168,0,7.309,4.233,12.589,15.894C391.681,375.913,394.283,387.867,394.283,394z
			 M419.564,199.256h49.112c-2.737,8.996-2.351,19.693,0.616,28.912h-50.344C421.916,218.948,422.302,208.251,419.564,199.256z
			 M444.12,300.858c-21.165,0-38.384-17.219-38.384-38.383c0-6.345,1.535-12.452,4.455-17.948h67.858
			c2.921,5.495,4.454,11.601,4.454,17.948C482.503,283.639,465.284,300.858,444.12,300.858z"/>
	</g>
</g>
<g>
</g>
<g>
</g>
<g>
</g>
<g>
</g>
<g>
</g>
<g>
</g>
<g>
</g>
<g>
</g>
<g>
</g>
<g>
</g>
<g>
</g>
<g>
</g>
<g>
</g>
<g>
</g>
<g>
</g>
</svg>
