<?xml version="1.0" encoding="iso-8859-1"?>
<!-- Generator: Adobe Illustrator 19.0.0, SVG Export Plug-In . SVG Version: 6.00 Build 0)  -->
<svg version="1.1" id="Layer_1" xmlns="http://www.w3.org/2000/svg" xmlns:xlink="http://www.w3.org/1999/xlink" x="0px" y="0px"
	 viewBox="0 0 512 512" style="enable-background:new 0 0 512 512;" xml:space="preserve">
<g>
	<g>
		<g>
			<path d="M411.702,107.428c-4.985-6.323-12.135-10.325-20.117-11.265l-76.346-9.08l-31.386-68.297
				c-2.892-7.123-8.312-12.802-15.286-16.013C264.577,0.933,260.339,0,255.969,0c-11.715,0-22.456,6.871-27.359,17.503
				L196.405,87.26l-75.984,8.9c-0.48,0.056-0.95,0.144-1.404,0.261c-6.594,1.078-12.66,4.33-17.214,9.252
				c-11.256,12.167-10.515,31.224,1.65,42.481l56.349,52.146l-15.049,75.166c-0.096,0.477-0.156,0.952-0.187,1.424
				c-0.986,6.557,0.224,13.287,3.458,19.102c5.305,9.541,15.389,15.469,26.315,15.468c5.089-0.001,10.139-1.312,14.626-3.808
				l20.053-11.215l-5.648,85.585h-19.053c-5.887,0-10.661,4.774-10.661,10.661v34.027h-26.401c-5.888,0-10.661,4.774-10.661,10.661
				v63.967c0,5.887,4.773,10.661,10.661,10.661h213.212c5.888,0,10.661-4.774,10.661-10.661v-63.967
				c0-5.887-4.773-10.661-10.661-10.661h-26.402v-34.027c0-5.887-4.773-10.661-10.661-10.661h-14.786l-5.645-85.544l19.388,10.889
				c4.622,2.709,9.881,4.141,15.216,4.141c1.934,0,3.884-0.19,5.79-0.562c16.306-3.185,26.982-19.042,23.793-35.381l-14.965-75.451
				l55.517-51.196c5.731-4.932,9.369-11.773,10.256-19.293C418.91,121.631,416.684,113.748,411.702,107.428z M349.804,448.035
				v42.644h-0.001H157.914v-42.644h26.401h139.087H349.804z M312.738,403.346v23.366H194.975v-23.366h18.373h85.286H312.738z
				 M224.736,382.023l6.467-97.994l24.853-13.898l24.723,13.884l6.467,98.007H224.736z M396.792,127.126
				c-0.262,2.22-1.346,4.237-3.048,5.678c-0.114,0.098-0.229,0.198-0.339,0.3l-60.059,55.384c-2.729,2.516-3.952,6.271-3.23,9.912
				l16.123,81.28c0.931,4.769-2.193,9.407-6.963,10.338c-2.123,0.415-4.31,0.031-6.166-1.067c-0.07-0.042-0.142-0.082-0.212-0.123
				l-71.609-40.215c-1.622-0.91-3.421-1.366-5.22-1.366c-1.793,0-3.588,0.452-5.204,1.356L178.58,289.03
				c-1.322,0.735-2.751,1.108-4.243,1.108c-3.19,0-6.13-1.727-7.677-4.508c-1.293-2.326-1.222-4.533-0.935-5.975
				c0.075-0.376,0.129-0.752,0.162-1.126l15.996-79.903c0.729-3.639-0.488-7.397-3.213-9.917l-60.735-56.205
				c-3.535-3.273-3.753-8.813-0.479-12.351c1.818-1.966,3.95-2.578,5.419-2.745c0.405-0.046,0.803-0.115,1.191-0.205l80.755-9.459
				c3.686-0.432,6.882-2.751,8.439-6.121l34.712-75.185c1.433-3.108,4.573-5.115,7.998-5.115c1.267,0,2.501,0.274,3.676,0.816
				c2.059,0.948,3.653,2.639,4.488,4.761c0.073,0.184,0.15,0.367,0.234,0.547l33.994,73.969c1.549,3.373,4.741,5.696,8.427,6.135
				l82.294,9.787c2.334,0.275,4.42,1.445,5.879,3.292C396.417,122.48,397.067,124.787,396.792,127.126z"/>
			<path d="M280.833,125.935l-0.254-0.031c-5.845-0.72-11.166,3.436-11.883,9.281c-0.719,5.844,3.438,11.165,9.281,11.883
				l0.254,0.031c0.442,0.054,0.881,0.081,1.315,0.081c5.307,0,9.904-3.959,10.569-9.362
				C290.831,131.974,286.675,126.654,280.833,125.935z"/>
			<path d="M336.595,132.567l-25.391-3.024c-5.841-0.696-11.152,3.479-11.847,9.326c-0.696,5.847,3.48,11.151,9.326,11.847
				l25.391,3.024c0.427,0.051,0.853,0.076,1.274,0.076c5.324,0,9.927-3.983,10.573-9.401
				C346.618,138.567,342.442,133.263,336.595,132.567z"/>
		</g>
	</g>
</g>
<g>
</g>
<g>
</g>
<g>
</g>
<g>
</g>
<g>
</g>
<g>
</g>
<g>
</g>
<g>
</g>
<g>
</g>
<g>
</g>
<g>
</g>
<g>
</g>
<g>
</g>
<g>
</g>
<g>
</g>
</svg>
