<?xml version="1.0" encoding="iso-8859-1"?>
<!-- Generator: Adobe Illustrator 19.0.0, SVG Export Plug-In . SVG Version: 6.00 Build 0)  -->
<svg version="1.1" id="Layer_1" xmlns="http://www.w3.org/2000/svg" xmlns:xlink="http://www.w3.org/1999/xlink" x="0px" y="0px"
	 viewBox="0 0 479.999 479.999" style="enable-background:new 0 0 479.999 479.999;" xml:space="preserve">
<g>
	<g>
		<g>
			<path d="M399.652,211.652c-9.977-9.01-15.472-20.97-15.474-33.678c-0.003-12.716,5.494-24.686,15.467-33.699
				c19.555-17.627,19.994-30.869,16.918-38.875c-2.916-7.591-11.312-16.64-34.748-16.64c-1.634,0-3.341,0.045-5.063,0.134
				c-13.817,0.702-26.591-4.215-35.577-13.662c-8.473-8.909-12.779-20.984-12.128-33.983c0.831-16.001-2.102-27.648-8.719-34.618
				C316.21,2.293,310.887,0,304.934,0c-9.77,0-20.277,6.154-31.23,18.291c-9.02,9.989-20.988,15.49-33.704,15.49
				s-24.685-5.501-33.702-15.489C195.341,6.154,184.835,0,175.069,0c-5.949,0-11.271,2.292-15.388,6.626
				c-6.618,6.968-9.556,18.615-8.732,34.605c0.653,13.02-3.654,25.096-12.129,34.005c-8.418,8.851-20.123,13.725-32.959,13.725
				c-0.002,0-0.003,0-0.005,0c-0.864,0-1.743-0.022-2.601-0.065c-1.732-0.09-3.439-0.135-5.073-0.135
				c-23.434,0-31.829,9.049-34.746,16.641c-3.075,8.006-2.638,21.249,16.906,38.865c9.982,9.021,15.479,20.992,15.477,33.708
				c-0.002,12.708-5.497,24.668-15.47,33.674c-19.555,17.64-19.99,30.888-16.912,38.896c2.917,7.588,11.308,16.634,34.714,16.634
				c1.646,0,3.363-0.046,5.099-0.136c11.571-0.595,22.418,2.78,30.921,9.454l-61.907,145.91c-1.361,3.21-0.953,6.897,1.077,9.73
				c2.031,2.835,5.403,4.401,8.867,4.148l56.259-4.165l28.927,43.423c1.866,2.801,4.999,4.456,8.32,4.456
				c0.339,0,0.681-0.018,1.024-0.053c3.69-0.378,6.867-2.769,8.254-6.21l54.668-135.668l60.318,135.985
				c1.479,3.334,4.655,5.599,8.289,5.909c0.285,0.024,0.57,0.036,0.854,0.036c3.323,0,6.454-1.657,8.318-4.453l28.95-43.426
				l56.23,4.165c3.482,0.261,6.877-1.335,8.903-4.199c2.025-2.865,2.401-6.582,0.991-9.795L347.827,275
				c7.491-5.215,16.566-8.024,26.293-8.024c0.868,0,1.753,0.022,2.618,0.066c1.744,0.091,3.461,0.137,5.102,0.137
				c0.002,0,0.005,0,0.007,0c23.405-0.001,31.795-9.048,34.712-16.637C419.635,242.534,419.202,229.286,399.652,211.652z
				 M173.526,448.677l-21.652-32.504c-2-3.003-5.479-4.696-9.061-4.429l-45.736,3.387l50.871-119.896
				c2.298,6.012,3.346,12.603,3.002,19.458c-0.825,15.996,2.113,27.64,8.731,34.607c4.118,4.334,9.439,6.625,15.389,6.625
				c0,0,0.003,0,0.004,0c9.77-0.002,20.274-6.158,31.221-18.294c4.87-5.394,10.604-9.465,16.847-12.082L173.526,448.677z
				 M387.517,415.112l-45.473-3.368c-3.591-0.265-7.059,1.424-9.059,4.426l-22.1,33.151l-55.095-124.212
				c6.657,2.59,12.765,6.82,17.909,12.518c10.952,12.142,21.46,18.298,31.231,18.297c5.954,0,11.278-2.294,15.398-6.633
				c6.617-6.971,9.552-18.613,8.721-34.586c-0.408-8.127,1.119-15.887,4.386-22.74L387.517,415.112z M397.889,243.367
				c-0.291,0.756-4.059,3.811-16.044,3.811c-1.298,0-2.666-0.036-4.078-0.11c-1.214-0.062-2.44-0.093-3.647-0.093
				c-18.357,0-35.201,7.081-47.431,19.94c-12.29,12.921-18.546,30.25-17.614,48.811c0.596,11.455-1.38,17.823-3.252,19.796
				c-0.345,0.363-0.486,0.402-0.893,0.402c-0.597,0-6.128-0.328-16.382-11.696c-12.86-14.243-30.102-22.088-48.549-22.088
				s-35.688,7.845-48.552,22.091c-10.25,11.364-15.78,11.693-16.377,11.693c-0.405,0-0.545-0.039-0.889-0.4
				c-1.872-1.971-3.849-8.34-3.258-19.816c0.931-18.541-5.325-35.869-17.616-48.791c-13.033-13.704-31.26-20.852-51.087-19.848
				c-1.4,0.072-2.77,0.109-4.069,0.109c-11.986,0-15.755-3.054-16.045-3.81c-0.361-0.938,0.576-6.891,11.644-16.873
				c14.229-12.85,22.066-30.081,22.069-48.519c0.004-18.444-7.833-35.686-22.076-48.558c-11.058-9.967-11.997-15.909-11.637-16.846
				c0.29-0.757,4.064-3.814,16.076-3.814c1.291,0,2.651,0.036,4.053,0.108c1.202,0.061,2.42,0.092,3.619,0.092
				c0.004,0,0.004,0,0.007,0c18.367-0.001,35.221-7.082,47.451-19.94c12.287-12.918,18.542-30.246,17.61-48.805
				c-0.59-11.472,1.387-17.844,3.26-19.815c0.342-0.36,0.482-0.4,0.887-0.4c0.597,0,6.124,0.328,16.381,11.693
				c12.86,14.243,30.102,22.088,48.549,22.088c18.447,0,35.688-7.845,48.55-22.089C298.804,20.328,304.335,20,304.934,20
				c0.407,0,0.548,0.04,0.892,0.401c1.871,1.972,3.846,8.343,3.249,19.828c-0.931,18.542,5.324,35.868,17.61,48.786
				c12.233,12.862,29.087,19.945,47.458,19.945c1.198,0,2.416-0.031,3.631-0.093c1.391-0.071,2.751-0.108,4.042-0.108
				c12.014,0,15.788,3.056,16.079,3.813c0.359,0.937-0.581,6.878-11.649,16.855c-14.233,12.862-22.07,30.105-22.066,48.549
				c0.003,18.438,7.841,35.669,22.073,48.523C397.314,236.477,398.249,242.429,397.889,243.367z"/>
			<path d="M240.582,88.649c-52.742,0-95.65,42.9-95.65,95.633c0,52.738,42.908,95.644,95.65,95.644
				c52.734,0,95.637-42.905,95.637-95.644C336.22,131.55,293.317,88.649,240.582,88.649z M240.582,259.926
				c-41.714,0-75.65-33.934-75.65-75.644c0-41.704,33.936-75.633,75.65-75.633c41.706,0,75.637,33.929,75.637,75.633
				C316.22,225.992,282.288,259.926,240.582,259.926z"/>
			<path d="M244.48,133.235c-1.32-0.138-13.278-1.188-26.266,4.285c-12.493,5.266-28.061,17.508-31.277,45.929
				c-0.621,5.488,3.324,10.44,8.811,11.061c0.383,0.043,0.762,0.064,1.138,0.064c5.019,0,9.346-3.77,9.924-8.876
				c3.895-34.408,32.361-32.862,35.648-32.566c5.477,0.54,10.358-3.439,10.93-8.913C253.962,138.727,249.973,133.809,244.48,133.235
				z"/>
		</g>
	</g>
</g>
<g>
</g>
<g>
</g>
<g>
</g>
<g>
</g>
<g>
</g>
<g>
</g>
<g>
</g>
<g>
</g>
<g>
</g>
<g>
</g>
<g>
</g>
<g>
</g>
<g>
</g>
<g>
</g>
<g>
</g>
</svg>
