<?xml version="1.0" encoding="iso-8859-1"?>
<!-- Generator: Adobe Illustrator 19.0.0, SVG Export Plug-In . SVG Version: 6.00 Build 0)  -->
<svg version="1.1" id="Capa_1" xmlns="http://www.w3.org/2000/svg" xmlns:xlink="http://www.w3.org/1999/xlink" x="0px" y="0px"
	 viewBox="0 0 59 59" style="enable-background:new 0 0 59 59;" xml:space="preserve">
<g>
	<g>
		<path d="M4,27.5h17h17h17c0.552,0,1-0.447,1-1v-19c0-0.553-0.448-1-1-1H39v-3c0-0.553-0.448-1-1-1H21c-0.552,0-1,0.447-1,1v3H4
			c-0.552,0-1,0.447-1,1v15v4C3,27.053,3.448,27.5,4,27.5z M5,23.5h15v2H5V23.5z M54,8.5v17H39v-17H54z M22,4.5h15v3v18H22v-3v-15
			V4.5z M5,8.5h15v13H5V8.5z"/>
		<rect x="17" y="40.5" width="2" height="3"/>
		<rect x="17" y="15.5" width="2" height="3"/>
		<rect x="34" y="40.5" width="2" height="3"/>
		<rect x="34" y="15.5" width="2" height="3"/>
		<rect x="51" y="40.5" width="2" height="3"/>
		<rect x="51" y="15.5" width="2" height="3"/>
		<path d="M59,38.5v-2h-4H38H21H4H0v2h3v13c-0.552,0-1,0.447-1,1v3c0,0.553,0.448,1,1,1h53c0.552,0,1-0.447,1-1v-3
			c0-0.553-0.448-1-1-1v-13H59z M37,51.5H22v-13h15V51.5z M5,38.5h15v13H5V38.5z M55,54.5H4v-1h17h17h17V54.5z M54,51.5H39v-13h15
			V51.5z"/>
	</g>
</g>
<g>
</g>
<g>
</g>
<g>
</g>
<g>
</g>
<g>
</g>
<g>
</g>
<g>
</g>
<g>
</g>
<g>
</g>
<g>
</g>
<g>
</g>
<g>
</g>
<g>
</g>
<g>
</g>
<g>
</g>
</svg>
